<?xml version="1.0" encoding="UTF-8" standalone="no"?>
<svg width="1024" height="1024" viewBox="0 0 1024 1024" fill="none" xmlns="http://www.w3.org/2000/svg">
  <!-- Background -->
  <rect width="1024" height="1024" fill="#E74C3C"/>
  
  <!-- House Shape -->
  <path d="M512 200L200 450V824H824V450L512 200Z" fill="white"/>
  
  <!-- Door -->
  <rect x="462" y="624" width="100" height="200" fill="#34495E"/>
  
  <!-- Windows -->
  <rect x="312" y="524" width="100" height="100" fill="#3498DB"/>
  <rect x="612" y="524" width="100" height="100" fill="#3498DB"/>
  
  <!-- Roof -->
  <path d="M512 200L200 450H824L512 200Z" fill="#34495E"/>
  
  <!-- Location Pin -->
  <path d="M512 350C459.5 350 417 392.5 417 445C417 515 512 650 512 650C512 650 607 515 607 445C607 392.5 564.5 350 512 350ZM512 485C489.5 485 472 467.5 472 445C472 422.5 489.5 405 512 405C534.5 405 552 422.5 552 445C552 467.5 534.5 485 512 485Z" fill="#E74C3C"/>
</svg> 